<svg data-v-423bf9ae="" xmlns="http://www.w3.org/2000/svg" viewBox="0 0 477 112" class="iconLeft"><!----><!----><!----><g data-v-423bf9ae="" id="5500e8c3-c9fb-4732-80ab-43a864b288dc" fill="#c9d1d9" transform="matrix(5.970149517059326,0,0,5.970149517059326,129.05160522460938,3.5854060649871826)"><path d="M8.29 6.62L8.29 4.36L0.34 4.36L0.34 6.62L3.04 6.62L3.04 13.48L5.59 13.48L5.59 6.62ZM13.73 6.41C12.85 6.41 12.37 7.05 11.94 7.79L11.94 6.55L9.58 6.55L9.58 13.52L11.94 13.52L11.94 9.94C12.25 9.32 12.74 8.90 13.38 8.90C13.86 8.90 14.18 9.02 14.52 9.23L14.52 6.62C14.29 6.49 14.03 6.41 13.73 6.41ZM18.42 6.34C16.72 6.34 15.27 7.67 15.27 10.02C15.27 12.55 16.72 13.73 18.28 13.73C19.28 13.73 20.02 13.13 20.36 12.36L20.36 13.52L22.71 13.52L22.71 6.55L20.36 6.55L20.36 7.19C19.91 6.70 19.14 6.34 18.42 6.34ZM18.91 8.64C19.43 8.64 19.95 8.89 20.36 9.21L20.36 9.88C20.36 10.90 19.56 11.35 18.98 11.35C18.22 11.35 17.73 10.77 17.73 10.02C17.73 9.28 18.22 8.64 18.91 8.64ZM28.62 13.52L31.95 6.55L29.24 6.55L27.85 10.08L26.44 6.55L23.73 6.55L27.10 13.52ZM39.03 9.87C39.03 7.72 37.63 6.34 35.66 6.34C33.55 6.34 31.95 8.07 31.95 10.14C31.95 12.36 33.81 13.73 35.79 13.73C36.83 13.73 37.61 13.52 38.09 13.22L38.09 11.21C37.71 11.43 36.98 11.68 35.93 11.68C35.14 11.68 34.48 11.35 34.28 10.65L39.03 10.65ZM34.30 9.34C34.49 8.63 34.97 8.29 35.59 8.29C36.20 8.29 36.80 8.68 36.80 9.34ZM42.68 13.52L42.68 3.68L40.33 3.68L40.33 13.52ZM47.71 6.55L47.71 4.50L46.46 4.50C46.05 5.96 45.08 6.73 44.19 6.96L44.19 8.39L45.36 8.39L45.36 11.21C45.36 12.80 46.48 13.73 47.78 13.73C48.69 13.73 49.33 13.37 49.63 12.97L49.63 11.14C49.29 11.35 48.96 11.44 48.52 11.44C48.02 11.44 47.71 11.02 47.71 10.35L47.71 8.39L49.55 8.39L49.55 6.55ZM54.41 6.34C52.47 6.34 50.59 7.89 50.59 10.04C50.59 12.18 52.47 13.73 54.41 13.73C56.36 13.73 58.24 12.18 58.24 10.04C58.24 7.89 56.36 6.34 54.41 6.34ZM54.41 8.60C54.92 8.60 55.71 8.85 55.71 10.04C55.71 11.22 54.92 11.47 54.41 11.47C53.91 11.47 53.12 11.22 53.12 10.04C53.12 8.85 53.91 8.60 54.41 8.60Z"></path></g><!----><g data-v-423bf9ae="" id="a90713b1-4c02-411f-83af-e0310a34713e" transform="matrix(1.1111111640930176,0,0,1.1111111640930176,0.45704174041748047,0.4444417953491211)" stroke="none" fill="#488eff"><path d="M67.712 41.909l1.423 2 .274-.055.111-1.249.095-1.386-.163-.819-.439-.105-.607.607-1.08.353z"></path><path d="M97.05 33.128c-.071-.2-.151-.395-.226-.594a52.482 52.482 0 0 0-1.274-3.094c-.105-.233-.198-.468-.308-.7a49.747 49.747 0 0 0-.848-1.717c-.029-.057-.061-.111-.09-.167a50.144 50.144 0 0 0-1.455-2.594c-.032-.054-.063-.109-.096-.163a49.54 49.54 0 0 0-1.708-2.629l-.04-.059A49.688 49.688 0 0 0 77.271 8.108l-.09-.058a50.019 50.019 0 0 0-2.633-1.592c-.074-.042-.149-.082-.224-.123a49.92 49.92 0 0 0-2.658-1.38c-.088-.044-.178-.083-.266-.125a50.516 50.516 0 0 0-2.761-1.212l-.174-.066c-.95-.377-1.91-.727-2.881-1.045l-.107-.037a49.475 49.475 0 0 0-3.051-.884c-.034-.009-.066-.021-.101-.029l-.001.002A49.924 49.924 0 0 0 49.966 0c-.3 0-.602.019-.903.024-.197.003-.395.01-.591.016-1.679.051-3.36.187-5.042.41-.249.033-.497.064-.745.101-.472.07-.944.146-1.415.23-.329.058-.655.124-.981.189-.593.118-1.186.245-1.777.385-.508.12-1.014.244-1.516.379a50.9 50.9 0 0 0-.975.278 50.12 50.12 0 0 0-1.543.478c-.246.081-.492.157-.738.242-.757.261-1.506.54-2.248.835-.164.066-.327.137-.492.204-.652.268-1.297.55-1.936.845-.108.049-.217.091-.325.142-.068.032-.133.068-.201.101-.69.329-1.375.667-2.049 1.027-.13.069-.255.144-.384.214-.517.281-1.029.57-1.536.87-.308.182-.611.369-.914.556a48.94 48.94 0 0 0-.9.572c-.357.232-.713.464-1.063.704-.167.115-.33.234-.496.351a49.755 49.755 0 0 0-3.984 3.117l-.261.227a51.7 51.7 0 0 0-1.269 1.154l-.152.146a49.837 49.837 0 0 0-3.645 3.861c-.094.111-.189.219-.282.331a52.311 52.311 0 0 0-1.372 1.727c-.27.354-.536.709-.795 1.07-.18.25-.354.505-.53.759-.229.331-.46.66-.681.996a48.35 48.35 0 0 0-1.077 1.712c-.147.245-.284.495-.426.743-.229.397-.457.794-.676 1.199-.146.271-.286.543-.427.816a47.838 47.838 0 0 0-1.546 3.272c-.109.259-.221.517-.328.777-.04.097-.083.191-.123.288a.398.398 0 0 1 .02-.022 50.274 50.274 0 0 0-3.2 12.145H.44c-.021.156-.029.312-.048.468a50.708 50.708 0 0 0-.231 2.24c-.017.215-.023.429-.037.644a50.22 50.22 0 0 0-.098 2.129c-.004.202-.001.404-.003.606a50.87 50.87 0 0 0 .023 2.174c.006.184.017.367.025.551.033.742.082 1.483.149 2.227.015.166.032.331.049.497a49.198 49.198 0 0 0 .75 4.947c.035.17.068.34.104.509.151.705.321 1.409.504 2.111.052.2.101.4.156.599.176.644.371 1.284.574 1.924.08.253.156.508.241.76a50.7 50.7 0 0 0 .603 1.672c.12.319.234.641.36.957.191.479.4.954.607 1.43.163.375.319.752.491 1.122.034.074.063.15.098.225.306.651.627 1.29.958 1.921.069.133.143.264.213.396.366.685.745 1.357 1.138 2.019.045.075.088.152.133.228.47.78.959 1.543 1.465 2.29l.002.003C18.104 92.023 33.772 100 50.034 100a49.784 49.784 0 0 0 21.227-4.758c23.538-11.061 34.423-38.125 25.789-62.114zM70.41 93.432C63.959 96.463 57.104 98 50.034 98c-14.731 0-28.53-6.851-37.528-18.081l-.384-1.01 1.653.197.905-.276.315-1.969-.236-2.361-.434-1.142c.197-.131.395-.262.591-.394l.275-1.103.866-.59.118-2.008-.512-1.143-1.142-.629-1.142-1.969-1.535-.866a877.44 877.44 0 0 1-1.811-1.103 809.25 809.25 0 0 1-1.024-1.851l-1.495-1.889v-1.812l-.513-1.653-1.417-2.165-1.023-2.559-.394-2.599-.433-1.692-1.365-2.911c.214-1.799.532-3.581.943-5.338l.549 1.555.801 1.188.619.336-.697-1.524-.514-1.803-.025-1.705-.067-.564a48.228 48.228 0 0 1 5.365-12.006l1.158-.86 1.446-1.343 2.145-.826 1.188-.491.129.827 1.188.025 1.705-.568-1.575-.567 1.032-.931.827-.853-.361-.903.981-.104L20.316 19l1.162-.026 1.06-.051.774-1.369.542-1.938a8442.1 8442.1 0 0 0 2.532-3.1l-1.782.465 1.316-1.652.904-1.447c-.499.225-.999.448-1.498.672l-2.169 1.653-1.68.774-2.351.931 2.195-1.886.561-.905a47.926 47.926 0 0 1 6.016-3.706l1.018.117.13 1.085-.827 1.42-.671 1.188c.628.009 1.257.018 1.885.025l2.015-1.059 2.325-1.085 2.066-.904-.801-.465-.077-.801a6162 6162 0 0 1 .878-1.007l.465-1.008.697.62.336-.439.801.259 1.42.129-.955 1.266-.543.62-1.085 1.291-1.73 1.498-1.136.362-1.188 1.214-1.188.62-1.239 1.239-.595.981.311.311-.232.748.765.392.801-.671 1.11-.697c.438-.268.879-.534 1.317-.801l1.395-.155 1.679-.568.854-.542.852.206c.715-.111 1.43-.224 2.144-.336l.853-.594 1.033-1.059 1.498-1.395.853-.931 1.137-1.059.903-.361c-.193-.369-.383-.738-.572-1.109l1.162.595 2.092.335 2.015-.052L54.4 6.4l.646-.826 1.421.361.672-.052-.13-1.059.827-.543c.404-.146.809-.293 1.214-.438l1.421.051c.023-.208.049-.417.073-.626l-.115-.099c.914.206 1.82.44 2.718.698l-.106.44-.712-.419-1.381.293.377 1.046 1.694 1.737-.063 1.443 1.192.941-.879 1.443.565.104c.174.202.349.404.522.607l-1.506.438-.523 1.276-.522.398-.795.543-.628-.48-.503-.398-.878-.271-1.318-.104-.69-.104-.397-.063-.46-.419h-.795l-.879.167-.962.252-.67.836-.418.941-.523.712-.816.857-.774.503-.837.982-.9.816-.146.795.063.628.167.606.293.502.439.23.753-.355.042-.523 1.004-.229c.015.125.028.25.042.376l.461.837.355.586-.063.355.041.523.732.104.439-.377.753-.523-.229-.669-.084-.67 1.109-.46-.398-.606-.753-.439c.015-.446.028-.893.042-1.339l.899-.732c.091-.271.182-.544.271-.816l.398-.648.962.021.146.711-.816.648-.251.795c.141.335.279.67.419 1.005l.397.586 1.13-.063.564-.585 1.276.292-.021.314-.502.271-1.047.377-.753.188-.376.669.271.313c-.16.057-.32.112-.481.168.05.328.098.655.146.983l.377.628-.879.586-.523.125c-.11-.098-.223-.195-.334-.293l-.251.168-.523.355c-.188.09-.376.182-.564.271l-.21.461c-.16-.141-.32-.279-.48-.419l-.314-.502-.376.377-1.025-.084-.356-.565.209-.69.272-.606-.44-.648-.481.418-.502.565.313 1.067.042.732-.628.229h-.794c-.161.111-.321.224-.482.334l-.418.691c-.188.16-.377.32-.564.481l-.983.355c-.021.167-.043.334-.063.502l-.731.418-.063.293-1.066-.125-.126.48c-.133.05-.265.099-.397.146l-.795-.292-.69.355.313.355 1.067.397.146.648.377.377-.105.438-.188 1.235-.439.502-1.109.042-1.694-.336-1.025.105-.586.754-.815 1.066.104.92-.23.816.272.879.48.48.899.23c.008.251.015.502.021.754l.377.229.773-.355 1.716-.02.397-.252.69-.48c.133-.141.266-.279.397-.419l-.292-.774.146-.773.754-.858 1.004-.335.522-.794.104-.544.858-.21.857.272c.464-.176.927-.351 1.391-.525.339-.102.678-.202 1.017-.305l.542.237.237.56c.227.236.452.474.679.712l.609.593.915.39.763.407.56.439.355.594-.051.525-.187.373c.074.118.146.237.221.355l.305-.305.356-.491.152-.323c-.063-.106-.125-.214-.187-.321l-.288-.288.169-.254c.046-.067.091-.136.136-.204.158.103.316.204.475.306l.203.288.271-.203-.491-.509-.61-.424-.61-.457-.321.017-.678-.203-.424-.543-.373-.711-.542-.255-.322-.575c.033-.074.067-.147.102-.221-.057-.112-.113-.227-.169-.339l.203-.255.575-.135c.159.112.317.226.476.339l.373.491.406.524.457.373.543.187c.096.119.191.238.288.356l.948.22.509.746-.17.609.458.476.694.525.915.135.322.594 1.237.542.221-.492-.763-.524-.306-.525a72.038 72.038 0 0 0-.203-.491l.56-.644.796-.068h.712l.746-.305.325-.339-.681-1.362 1.118-.485 1.458-1.069 1.069.098.875-.681c.437.032.874.064 1.312.098l1.361.631 1.021.633v.875c-.275.112-.551.227-.826.34-.373.08-.746.162-1.118.243l-1.166-.438-1.361-.097-.826.728c-.323.098-.648.194-.972.293-.341.178-.681.355-1.021.534l-1.166.534.097.972 1.021.973 1.069 1.264.924-.243.34-.584.632.487c.438-.065.875-.131 1.312-.194l.438-.584 1.361.098-.115.762-.042 2.009.167 1.38.439.105.335 1.256-.188.752.105 1.113.486.34 1.021 1.216.874 1.263.632.389.729 1.508.729 1.068.972.39c.179.323.356.647.534.972.373.389.746.777 1.118 1.167l1.467 3.576c.843-.616 1.685-1.231 2.527-1.848l2.041-1.943.681-.681.097-1.021.924-.874c.211-.195.421-.39.632-.583l.243-1.167.583-.485a305.26 305.26 0 0 0-.341-1.021c.163-.405.324-.811.486-1.216l.194-1.021-1.021-.729c-.259.049-.519.099-.777.146l-.632-.438-.632-1.458-.438 1.458-.486.924-.825.437a54.65 54.65 0 0 1-.486-.194l-.049-.632-.243-.826-.34.243v.681l-.438-.535-.681-.825-1.215-1.118-.194-.972.875-.487 1.069 1.069.437.633.583-.049.875.485h.583c.26-.323.519-.647.778-.972l.486-.049.485 1.021 1.944-.582c.453-.244.907-.487 1.36-.729l.924-.583.098-.05c.323.309.648.616.972.924l1.021.341.728-.584c.324.341.648.682.973 1.021l1.166 2.721 1.069 1.993 1.215 2.139.681 2.09.292-2.138c-.033-1.135-.064-2.27-.098-3.402l-.729-1.409.34-2.333-.389-2.868-.146-1.604.266-.798c7.171 22.574-3.319 47.586-25.321 57.926z"></path><path d="M42.337 15.775l-.413-1.007-.722-.051-.879-.104-.955-.13-.465.388.258.465-.336.543.439.361 1.033.129.956-.258zM40.543 25.364l.933-.237.593-.17.424-.576.219-.644.306-.355-.407-.764-.711-.118-.407.695-.441.169-.085.611-.271.204-.051.303-.305.239-.067.525z"></path><path d="M42.442 26.687l.609-.255.339.101.61-.304h1.035l1.067-.102.305-.272-.203-.356.457-.423-.525-.424-.389-.576-.255-.594-.339-.388-.033-.391-.441-.39.068-.457.44-.322.085-.61-.034-.762-1.983.152-.237.932.136.797.203.745.559.441.356.678-.491.372h-.34l.034.678-.39.187-.168.289.288.372zM77.013 83.729l1.395-.621.748-1.187 1.215-2.144.929-1.808.956-1.782-.103-2.505-.698 1.265h-.232l-.31.569-.801.981-.929.774-.878.491-.156.568-.336.414.156.904-.181.698-.491.49-.542.749-.413.595.232.387-.259.62zM58.23 91.763l-1.185-.741.147-.593-.963-1.852-.591-.074-.742-3.11-2-3.038.223-2 1.703-2.148-.74-1.63.296-1.111-1.186-1.852-2.519-3.334.89-3.259-.964-1.481-2.518.073-.815-.369-1.037-1.482-4.37.814-.963.519-1.408-.592-3.482.592-3.481-3.185-2.444-1.63-2-.74 1.258-4.075 1.186-2.815-.371-2.889.815-1.926 1.186-.889.221-1.184 1.556-1.408 2.741-1.333.815-2.742 1.482-.888 1.185-1.111 1.037.592 1.26.297 1.554-.668 1.779-.739h2.592l1.778.296.963-.519 1.111.296-.741 2.148.667.593 2.741 1.037 1.112.815 2 .667.888-.519-.221-.963.518-.741 2.741.593 3.037.296 1.259-.148 1.482.296 2.667 4.519.963 1.482.888.592.963 2.593 1.112.814 1.037 1.704 1.407 1.112 1.704 1.555.592.815.741-.666 1.037-.149.667-.815 1.778-1.26v2.964l-1.556 4.148-2.667 3.927-2.963 3.777-.666 2.518.443 2.89.149 3.407-1.926 1.704-1.926 1.186-1.185 1.184.297 1.853-.52.963-2.222 1.11-.296 1.335-1.481 1.184-2.519 2.074-2.296 1.111-2.296.964zM54.969 36.578l-.891.328-.734.11-.094.39 1.047.375.547.188.39-.43-.183-.414M65.188 38.516l.625-.219.578-.328.687-.563v.235l-.203.25-.094.297.125.14.172.281-.219.188-.343.156-.383.25h-.945l-.219-.25M49.895 34.017l-.189.291.094.291.3.24v-.223l.086-.411"></path></g><!----></svg>