<svg data-v-423bf9ae="" xmlns="http://www.w3.org/2000/svg" viewBox="0 0 345.6716771422184 60" class="font"><!----><!----><!----><g data-v-423bf9ae="" id="d6916960-17ea-4ff4-ac64-66dec1864ae8" fill="black" transform="matrix(5.970149517059326,0,0,5.970149517059326,-2.029838800430298,-21.970151901245117)"><path d="M8.29 6.62L8.29 4.36L0.34 4.36L0.34 6.62L3.04 6.62L3.04 13.48L5.59 13.48L5.59 6.62ZM13.73 6.41C12.85 6.41 12.37 7.05 11.94 7.79L11.94 6.55L9.58 6.55L9.58 13.52L11.94 13.52L11.94 9.94C12.25 9.32 12.74 8.90 13.38 8.90C13.86 8.90 14.18 9.02 14.52 9.23L14.52 6.62C14.29 6.49 14.03 6.41 13.73 6.41ZM18.42 6.34C16.72 6.34 15.27 7.67 15.27 10.02C15.27 12.55 16.72 13.73 18.28 13.73C19.28 13.73 20.02 13.13 20.36 12.36L20.36 13.52L22.71 13.52L22.71 6.55L20.36 6.55L20.36 7.19C19.91 6.70 19.14 6.34 18.42 6.34ZM18.91 8.64C19.43 8.64 19.95 8.89 20.36 9.21L20.36 9.88C20.36 10.90 19.56 11.35 18.98 11.35C18.22 11.35 17.73 10.77 17.73 10.02C17.73 9.28 18.22 8.64 18.91 8.64ZM28.62 13.52L31.95 6.55L29.24 6.55L27.85 10.08L26.44 6.55L23.73 6.55L27.10 13.52ZM39.03 9.87C39.03 7.72 37.63 6.34 35.66 6.34C33.55 6.34 31.95 8.07 31.95 10.14C31.95 12.36 33.81 13.73 35.79 13.73C36.83 13.73 37.61 13.52 38.09 13.22L38.09 11.21C37.71 11.43 36.98 11.68 35.93 11.68C35.14 11.68 34.48 11.35 34.28 10.65L39.03 10.65ZM34.30 9.34C34.49 8.63 34.97 8.29 35.59 8.29C36.20 8.29 36.80 8.68 36.80 9.34ZM42.68 13.52L42.68 3.68L40.33 3.68L40.33 13.52ZM47.71 6.55L47.71 4.50L46.46 4.50C46.05 5.96 45.08 6.73 44.19 6.96L44.19 8.39L45.36 8.39L45.36 11.21C45.36 12.80 46.48 13.73 47.78 13.73C48.69 13.73 49.33 13.37 49.63 12.97L49.63 11.14C49.29 11.35 48.96 11.44 48.52 11.44C48.02 11.44 47.71 11.02 47.71 10.35L47.71 8.39L49.55 8.39L49.55 6.55ZM54.41 6.34C52.47 6.34 50.59 7.89 50.59 10.04C50.59 12.18 52.47 13.73 54.41 13.73C56.36 13.73 58.24 12.18 58.24 10.04C58.24 7.89 56.36 6.34 54.41 6.34ZM54.41 8.60C54.92 8.60 55.71 8.85 55.71 10.04C55.71 11.22 54.92 11.47 54.41 11.47C53.91 11.47 53.12 11.22 53.12 10.04C53.12 8.85 53.91 8.60 54.41 8.60Z"></path></g><!----><!----></svg>